<svg width="88" height="30" viewBox="0 0 88 30" fill="none" xmlns="http://www.w3.org/2000/svg">
<path d="M18.048 12.976V14.272C18.048 16.672 17.28 18.616 15.744 20.104C14.208 21.592 12.224 22.336 9.792 22.336C7.2 22.336 5.048 21.496 3.336 19.816C1.64 18.12 0.792 16.056 0.792 13.624C0.792 11.176 1.632 9.104 3.312 7.408C5.008 5.712 7.104 4.864 9.6 4.864C11.168 4.864 12.6 5.224 13.896 5.944C15.192 6.648 16.2 7.592 16.92 8.776L14.088 10.408C13.688 9.72 13.08 9.16 12.264 8.728C11.464 8.296 10.568 8.08 9.576 8.08C7.976 8.08 6.656 8.608 5.616 9.664C4.592 10.704 4.08 12.024 4.08 13.624C4.08 15.208 4.6 16.52 5.64 17.56C6.696 18.584 8.088 19.096 9.816 19.096C11.096 19.096 12.152 18.816 12.984 18.256C13.832 17.68 14.408 16.896 14.712 15.904H9.624V12.976H18.048ZM23.3558 12.064C23.6438 11.296 24.1158 10.72 24.7718 10.336C25.4438 9.952 26.1878 9.76 27.0038 9.76V13.216C26.0598 13.104 25.2118 13.296 24.4598 13.792C23.7238 14.288 23.3558 15.112 23.3558 16.264V22H20.2598V10H23.3558V12.064ZM38.5931 20.512C37.3611 21.728 35.8571 22.336 34.0811 22.336C32.3051 22.336 30.8011 21.728 29.5691 20.512C28.3531 19.28 27.7451 17.776 27.7451 16C27.7451 14.224 28.3531 12.728 29.5691 11.512C30.8011 10.28 32.3051 9.664 34.0811 9.664C35.8571 9.664 37.3611 10.28 38.5931 11.512C39.8251 12.728 40.4411 14.224 40.4411 16C40.4411 17.776 39.8251 19.28 38.5931 20.512ZM31.7531 18.376C32.3771 19 33.1531 19.312 34.0811 19.312C35.0091 19.312 35.7851 19 36.4091 18.376C37.0331 17.752 37.3451 16.96 37.3451 16C37.3451 15.04 37.0331 14.248 36.4091 13.624C35.7851 13 35.0091 12.688 34.0811 12.688C33.1531 12.688 32.3771 13 31.7531 13.624C31.1451 14.248 30.8411 15.04 30.8411 16C30.8411 16.96 31.1451 17.752 31.7531 18.376ZM55.6624 10H58.9504L55.1344 22H52.1824L49.9744 14.728L47.7664 22H44.8144L40.9984 10H44.2864L46.3264 17.368L48.5104 10H51.4384L53.6224 17.392L55.6624 10Z" fill="black"/>
<path d="M70.9151 13.288C72.3871 14.136 73.1231 15.416 73.1231 17.128C73.1231 18.552 72.6191 19.72 71.6111 20.632C70.6031 21.544 69.3631 22 67.8911 22H60.7631V5.2H67.3871C68.8271 5.2 70.0351 5.648 71.0111 6.544C72.0031 7.424 72.4991 8.552 72.4991 9.928C72.4991 11.32 71.9711 12.44 70.9151 13.288ZM67.3871 8.296H64.0751V11.992H67.3871C67.8991 11.992 68.3231 11.816 68.6591 11.464C69.0111 11.112 69.1871 10.672 69.1871 10.144C69.1871 9.616 69.0191 9.176 68.6831 8.824C68.3471 8.472 67.9151 8.296 67.3871 8.296ZM67.8911 18.904C68.4511 18.904 68.9151 18.72 69.2831 18.352C69.6511 17.968 69.8351 17.488 69.8351 16.912C69.8351 16.352 69.6511 15.888 69.2831 15.52C68.9151 15.136 68.4511 14.944 67.8911 14.944H64.0751V18.904H67.8911ZM77.9539 17.272C78.3699 18.776 79.4979 19.528 81.3379 19.528C82.5219 19.528 83.4179 19.128 84.0259 18.328L86.5219 19.768C85.3379 21.48 83.5939 22.336 81.2899 22.336C79.3059 22.336 77.7139 21.736 76.5139 20.536C75.3139 19.336 74.7139 17.824 74.7139 16C74.7139 14.192 75.3059 12.688 76.4899 11.488C77.6739 10.272 79.1939 9.664 81.0499 9.664C82.8099 9.664 84.2579 10.272 85.3939 11.488C86.5459 12.704 87.1219 14.208 87.1219 16C87.1219 16.4 87.0819 16.824 87.0019 17.272H77.9539ZM77.9059 14.872H84.0259C83.8499 14.056 83.4819 13.448 82.9219 13.048C82.3779 12.648 81.7539 12.448 81.0499 12.448C80.2179 12.448 79.5299 12.664 78.9859 13.096C78.4419 13.512 78.0819 14.104 77.9059 14.872Z" fill="#F25822"/>
</svg>
